<svg width="72" height="92" viewBox="0 0 72 92" fill="none" xmlns="http://www.w3.org/2000/svg">
<path d="M18.3589 81.4701L31.1186 50.6663L20.872 46.4219L6.17099 81.9122C5.55167 83.4074 6.95288 84.9483 8.50002 84.4737L16.8359 81.9156C17.0833 81.8397 17.3213 81.8167 17.5663 81.8404L18.3589 81.4701Z" fill="#D4E2EC"/>
<path d="M30.5731 50.4378L17.5664 81.838C18.196 81.8941 18.7768 82.2595 19.0878 82.8459L23.1732 90.5492C23.9315 91.9791 26.012 91.8802 26.6315 90.3851L41.3325 54.8947L30.5731 50.4378Z" fill="#A5C6D8"/>
<path d="M41.7139 50.3192L30.6684 54.8946L45.3694 90.385C45.9887 91.8803 48.0691 91.979 48.8276 90.5492L52.913 82.8458C53.0387 82.6087 53.2088 82.4073 53.4082 82.248L54.4085 80.9837L41.7139 50.3192Z" fill="#D4E2EC"/>
<path d="M65.8297 81.9096L51.1287 46.4192L40.4071 50.8603L53.4091 82.2488C53.8911 81.8638 54.5444 81.7225 55.1647 81.9128L63.5006 84.4709C65.048 84.9459 66.4492 83.4049 65.8297 81.9096V81.9096Z" fill="#A5C6D8"/>
<path d="M39.6916 1.28657C41.2291 2.50644 43.27 2.88791 45.1444 2.30596C47.7802 1.48741 50.6323 2.59246 52.0287 4.973C53.0218 6.6659 54.7869 7.75896 56.7451 7.89327C59.4985 8.08213 61.7588 10.1429 62.2011 12.8672C62.5155 14.8045 63.7668 16.4613 65.5442 17.294C68.0434 18.4648 69.4067 21.2029 68.835 23.9028C68.4283 25.8229 68.9965 27.82 70.353 29.2383C72.2605 31.2329 72.5427 34.2786 71.0342 36.5897C69.9613 38.2333 69.7698 40.3007 70.5223 42.1134C71.5805 44.6624 70.7434 47.6043 68.502 49.2144C66.908 50.3593 65.9825 52.218 66.0293 54.1801C66.0953 56.9392 64.252 59.38 61.5802 60.0717C59.6802 60.5636 58.1457 61.9624 57.4806 63.809C56.5455 66.4055 53.9448 68.0158 51.2035 67.6955C49.2542 67.4679 47.3181 68.2177 46.0308 69.6994C44.2207 71.7829 41.2141 72.3448 38.7736 71.0561C37.0382 70.1395 34.9618 70.1395 33.2264 71.0561C30.7859 72.345 27.7793 71.7829 25.9692 69.6994C24.6819 68.2177 22.746 67.4679 20.7965 67.6955C18.0552 68.0158 15.4547 66.4055 14.5194 63.809C13.8543 61.9624 12.32 60.5636 10.4198 60.0717C7.74796 59.3802 5.90466 56.9392 5.97065 54.1801C6.01751 52.218 5.09201 50.3593 3.49801 49.2144C1.25644 47.6043 0.419466 44.6624 1.47766 42.1134C2.23022 40.3007 2.03868 38.2333 0.965822 36.5897C-0.542692 34.2786 -0.260483 31.2329 1.64702 29.2383C3.00352 27.82 3.5717 25.8229 3.16519 23.9028C2.59344 21.2029 3.95674 18.4647 6.45602 17.294C8.23333 16.4613 9.4845 14.8045 9.79908 12.8672C10.2412 10.1429 12.5017 8.08231 15.2551 7.89327C17.2132 7.75896 18.9784 6.6659 19.9715 4.973C21.3679 2.59246 24.2202 1.48759 26.8557 2.30596C28.7302 2.88808 30.7711 2.50644 32.3086 1.28657C34.4707 -0.428858 37.5296 -0.428858 39.6916 1.28657Z" fill="#89AAB8"/>
<path d="M52.2038 35.8717C52.2038 23.7634 44.3924 13.4801 33.5344 9.78436C20.2196 11.0269 9.79785 22.2321 9.79785 35.8717C9.79785 49.5113 20.2196 60.7165 33.5344 61.9591C44.3926 58.2634 52.2038 47.9802 52.2038 35.8717V35.8717Z" fill="#D4E2EC"/>
<path d="M36.0002 9.66992C33.9943 9.66992 32.0414 9.89615 30.1646 10.323C41.8264 12.9756 50.5309 23.4068 50.5309 35.8717C50.5309 48.3367 41.8264 58.7679 30.1646 61.4204C32.0414 61.8473 33.9943 62.0736 36.0002 62.0736C50.471 62.0736 62.202 50.3426 62.202 35.8717C62.202 21.4009 50.471 9.66992 36.0002 9.66992V9.66992Z" fill="#A5C6D8"/>
<g clip-path="url(#clip0)">
<path d="M54.6527 30.4518H18.0263L24.3412 22.874H48.3378L54.6527 30.4518Z" fill="#D0E8F9"/>
<path d="M28.7615 30.4518L24.3411 22.874H36.3394L28.7615 30.4518Z" fill="#ABCBDD"/>
<path d="M36.3396 54.4485L18.0264 30.4518H54.6528L36.3396 54.4485Z" fill="#ABCBDD"/>
<path d="M36.3395 54.4485L18.0263 30.4518H28.7616L36.3395 54.4485Z" fill="#93B6C5"/>
<path d="M43.9173 30.4518L48.3378 22.874H36.3395L43.9173 30.4518Z" fill="#ABCBDD"/>
<path d="M36.3395 54.4485L54.6527 30.4518H43.9173L36.3395 54.4485Z" fill="#93B6C5"/>
</g>
<defs>
<clipPath id="clip0">
<rect width="36.6264" height="36.6264" fill="white" transform="translate(18.0262 20.348)"/>
</clipPath>
</defs>
</svg>
