<svg width="72" height="92" viewBox="0 0 72 92" fill="none" xmlns="http://www.w3.org/2000/svg">
<path d="M18.3589 81.4698L31.1186 50.666L20.872 46.4216L6.17099 81.9119C5.55167 83.4071 6.95288 84.948 8.50002 84.4734L16.8359 81.9152C17.0833 81.8394 17.3213 81.8164 17.5663 81.8401L18.3589 81.4698Z" fill="#FFE07D"/>
<path d="M30.573 50.4378L17.5663 81.838C18.1959 81.8941 18.7767 82.2595 19.0877 82.8459L23.1732 90.5492C23.9314 91.9791 26.0119 91.8802 26.6314 90.3851L41.3324 54.8947L30.573 50.4378Z" fill="#FFD064"/>
<path d="M41.7139 50.3192L30.6684 54.8946L45.3694 90.385C45.9887 91.8803 48.0691 91.979 48.8276 90.5492L52.913 82.8458C53.0387 82.6087 53.2088 82.4073 53.4082 82.248L54.4085 80.9837L41.7139 50.3192Z" fill="#FFE07D"/>
<path d="M65.8295 81.9096L51.1285 46.4192L40.4068 50.8603L53.4089 82.2489C53.8908 81.8638 54.5441 81.7225 55.1645 81.9128L63.5004 84.4709C65.0477 84.9459 66.449 83.4049 65.8295 81.9096V81.9096Z" fill="#FFD064"/>
<path d="M39.6916 1.28657C41.2291 2.50644 43.27 2.8879 45.1444 2.30596C47.7802 1.48741 50.6323 2.59246 52.0287 4.973C53.0218 6.6659 54.7869 7.75896 56.7451 7.89327C59.4985 8.08213 61.7588 10.1429 62.2011 12.8672C62.5155 14.8045 63.7668 16.4613 65.5442 17.294C68.0434 18.4648 69.4067 21.2029 68.835 23.9028C68.4283 25.8229 68.9965 27.82 70.353 29.2383C72.2605 31.2329 72.5427 34.2786 71.0342 36.5897C69.9613 38.2333 69.7698 40.3007 70.5223 42.1134C71.5805 44.6624 70.7434 47.6043 68.502 49.2144C66.908 50.3593 65.9825 52.218 66.0293 54.1801C66.0953 56.9392 64.252 59.38 61.5802 60.0717C59.6802 60.5636 58.1457 61.9624 57.4806 63.809C56.5455 66.4055 53.9448 68.0158 51.2035 67.6955C49.2542 67.4678 47.3181 68.2177 46.0308 69.6994C44.2207 71.7829 41.2141 72.3448 38.7736 71.0561C37.0382 70.1395 34.9618 70.1395 33.2264 71.0561C30.7859 72.345 27.7793 71.7829 25.9692 69.6994C24.6819 68.2177 22.746 67.4678 20.7965 67.6955C18.0552 68.0158 15.4547 66.4055 14.5194 63.809C13.8543 61.9624 12.32 60.5636 10.4198 60.0717C7.74796 59.3802 5.90466 56.9392 5.97065 54.1801C6.01751 52.218 5.09201 50.3593 3.49801 49.2144C1.25644 47.6043 0.419466 44.6624 1.47766 42.1134C2.23022 40.3007 2.03868 38.2333 0.965822 36.5897C-0.542692 34.2786 -0.260483 31.2329 1.64702 29.2383C3.00352 27.82 3.5717 25.8229 3.16519 23.9028C2.59344 21.2029 3.95674 18.4647 6.45602 17.294C8.23333 16.4613 9.4845 14.8045 9.79908 12.8672C10.2412 10.1429 12.5017 8.08231 15.2551 7.89327C17.2132 7.75896 18.9784 6.6659 19.9715 4.973C21.3679 2.59246 24.2202 1.48759 26.8557 2.30596C28.7302 2.88808 30.7711 2.50644 32.3086 1.28657C34.4707 -0.428858 37.5296 -0.428858 39.6916 1.28657V1.28657Z" fill="#E8AE4D"/>
<path d="M52.2041 35.8717C52.2041 23.7634 44.3927 13.4801 33.5347 9.78436C20.2199 11.0269 9.79816 22.2321 9.79816 35.8717C9.79816 49.5113 20.2199 60.7165 33.5347 61.9591C44.3929 58.2634 52.2041 47.9803 52.2041 35.8717V35.8717Z" fill="#FFE07D"/>
<path d="M36.0002 9.66992C33.9943 9.66992 32.0414 9.89615 30.1646 10.323C41.8264 12.9756 50.5309 23.4068 50.5309 35.8717C50.5309 48.3367 41.8264 58.7679 30.1646 61.4204C32.0414 61.8473 33.9943 62.0736 36.0002 62.0736C50.471 62.0736 62.202 50.3426 62.202 35.8717C62.202 21.4009 50.471 9.66992 36.0002 9.66992V9.66992Z" fill="#FFD064"/>
<path d="M36.722 45.9284L45.7654 52.0157C46.1209 52.255 46.5138 52.2902 46.8577 52.1844C47.1773 51.75 47.4845 51.3059 47.7789 50.8527C47.7719 50.7664 47.756 50.678 47.7304 50.5882L44.7356 40.1064C44.5911 39.6005 44.7674 39.0575 45.1818 38.7333L52.0882 33.3268C51.9736 32.0749 51.7751 30.8472 51.4986 29.6493L42.121 29.3129C41.5952 29.2941 41.1332 28.9585 40.953 28.4643L37.2145 18.2238C36.801 17.0912 35.1991 17.0912 34.7857 18.2238L31.0474 28.464C30.8669 28.9581 30.4052 29.2938 29.8794 29.3126L18.9852 29.7033C17.7801 29.7466 17.2853 31.27 18.2346 32.0132L26.8185 38.7329C27.2327 39.0572 27.4092 39.6001 27.2647 40.1061L24.2699 50.5879C23.9387 51.7473 25.2345 52.6887 26.2348 52.0156L35.2782 45.9282C35.7147 45.6347 36.2856 45.6347 36.722 45.9284Z" fill="#E8AE4D"/>
<path d="M45.7655 52.0158C46.7657 52.6891 48.0616 51.7475 47.7304 50.5881L47.1874 48.6876C46.6046 49.7247 45.9525 50.7176 45.2388 51.6613L45.7655 52.0158Z" fill="#E5A32E"/>
<path d="M53.0152 29.7035L49.7718 29.5871C50.1677 31.1952 50.4145 32.8617 50.4982 34.5714L53.7658 32.0134C54.7151 31.2703 54.2201 29.7468 53.0152 29.7035Z" fill="#E5A32E"/>
</svg>
