<svg width="72" height="92" viewBox="0 0 72 92" fill="none" xmlns="http://www.w3.org/2000/svg">
<path d="M18.3588 81.4682L31.1185 50.6644L20.8719 46.42L6.17087 81.9103C5.55155 83.4055 6.95276 84.9464 8.4999 84.4718L16.8358 81.9137C17.0831 81.8378 17.3212 81.8148 17.5662 81.8385L18.3588 81.4682Z" fill="#E7E6E6"/>
<path d="M30.5729 50.4377L17.5662 81.8378C18.1957 81.894 18.7766 82.2594 19.0876 82.8458L23.173 90.5491C23.9313 91.9789 26.0117 91.88 26.6312 90.3849L41.3322 54.8945L30.5729 50.4377Z" fill="#CECECE"/>
<path d="M41.7137 50.3191L30.6682 54.8945L45.3691 90.3849C45.9885 91.8802 48.0689 91.9789 48.8274 90.5491L52.9128 82.8458C53.0385 82.6086 53.2086 82.4072 53.408 82.2479L54.4082 80.9837L41.7137 50.3191Z" fill="#E7E6E6"/>
<path d="M65.8294 81.9095L51.1284 46.4191L40.4068 50.8602L53.4088 82.2487C53.8908 81.8637 54.5441 81.7224 55.1645 81.9127L63.5004 84.4708C65.0477 84.9458 66.4489 83.4047 65.8294 81.9095V81.9095Z" fill="#CECECE"/>
<path d="M39.6916 1.28657C41.2291 2.50644 43.27 2.8879 45.1444 2.30596C47.7802 1.48741 50.6323 2.59246 52.0287 4.973C53.0218 6.66589 54.7869 7.75896 56.7451 7.89327C59.4985 8.08213 61.7588 10.1429 62.2011 12.8672C62.5155 14.8045 63.7668 16.4613 65.5442 17.294C68.0434 18.4648 69.4067 21.2029 68.835 23.9028C68.4283 25.8229 68.9965 27.82 70.353 29.2383C72.2605 31.2329 72.5427 34.2786 71.0342 36.5897C69.9613 38.2333 69.7698 40.3006 70.5223 42.1134C71.5805 44.6624 70.7434 47.6043 68.502 49.2144C66.908 50.3593 65.9825 52.218 66.0294 54.18C66.0953 56.9392 64.252 59.38 61.5802 60.0717C59.6802 60.5636 58.1457 61.9624 57.4806 63.809C56.5455 66.4055 53.9448 68.0158 51.2035 67.6955C49.2542 67.4678 47.3181 68.2177 46.0308 69.6994C44.2207 71.7829 41.2141 72.3448 38.7736 71.0561C37.0382 70.1395 34.9618 70.1395 33.2264 71.0561C30.7859 72.345 27.7793 71.7829 25.9692 69.6994C24.6819 68.2177 22.746 67.4678 20.7965 67.6955C18.0552 68.0158 15.4547 66.4055 14.5194 63.809C13.8543 61.9624 12.32 60.5636 10.4198 60.0717C7.74796 59.3802 5.90466 56.9392 5.97065 54.18C6.01751 52.218 5.09201 50.3593 3.49801 49.2144C1.25644 47.6043 0.419466 44.6624 1.47766 42.1134C2.23022 40.3006 2.03868 38.2333 0.965822 36.5897C-0.542692 34.2786 -0.260483 31.2329 1.64702 29.2383C3.00352 27.82 3.5717 25.8229 3.16519 23.9028C2.59344 21.2029 3.95674 18.4647 6.45602 17.294C8.23333 16.4613 9.4845 14.8045 9.79908 12.8672C10.2412 10.1429 12.5017 8.08231 15.2551 7.89327C17.2132 7.75896 18.9784 6.66589 19.9715 4.973C21.3679 2.59246 24.2202 1.48759 26.8557 2.30596C28.7302 2.88808 30.7711 2.50644 32.3086 1.28657C34.4707 -0.428858 37.5296 -0.428858 39.6916 1.28657Z" fill="#9D9D9D"/>
<path d="M52.204 35.8716C52.204 23.7633 44.3927 13.48 33.5346 9.78424C20.2198 11.0268 9.7981 22.232 9.7981 35.8716C9.7981 49.5112 20.2198 60.7164 33.5346 61.959C44.3929 58.2632 52.204 47.9801 52.204 35.8716V35.8716Z" fill="#E7E6E6"/>
<path d="M36.0001 9.66986C33.9943 9.66986 32.0413 9.89609 30.1646 10.323C41.8264 12.9755 50.5309 23.4067 50.5309 35.8717C50.5309 48.3366 41.8264 58.7678 30.1646 61.4204C32.0413 61.8473 33.9943 62.0735 36.0001 62.0735C50.4709 62.0735 62.2019 50.3425 62.2019 35.8717C62.2019 21.4009 50.4709 9.66986 36.0001 9.66986V9.66986Z" fill="#CECECE"/>
<path d="M36.7219 45.9283L45.7653 52.0157C46.1209 52.255 46.5138 52.2902 46.8577 52.1843C47.1773 51.7499 47.4845 51.3059 47.7789 50.8527C47.7719 50.7663 47.756 50.6779 47.7304 50.5882L44.7356 40.1064C44.5911 39.6004 44.7674 39.0575 45.1818 38.7332L52.0882 33.3267C51.9736 32.0749 51.7751 30.8471 51.4986 29.6492L42.1209 29.3129C41.5951 29.2941 41.1332 28.9584 40.9529 28.4643L37.2145 18.2237C36.801 17.0911 35.1991 17.0911 34.7856 18.2237L31.0473 28.4639C30.8669 28.958 30.4051 29.2937 29.8793 29.3125L18.9851 29.7033C17.7801 29.7465 17.2853 31.2699 18.2345 32.0132L26.8185 38.7329C27.2327 39.0571 27.4092 39.6001 27.2647 40.106L24.2699 50.5878C23.9386 51.7472 25.2345 52.6886 26.2348 52.0155L35.2782 45.9281C35.7147 45.6347 36.2856 45.6347 36.7219 45.9283Z" fill="#9D9D9D"/>
<path d="M45.7654 52.0156C46.7656 52.6889 48.0615 51.7473 47.7303 50.5879L47.1873 48.6874C46.6045 49.7245 45.9524 50.7174 45.2387 51.6611L45.7654 52.0156Z" fill="#737171"/>
<path d="M53.0152 29.7035L49.7717 29.587C50.1677 31.1952 50.4145 32.8616 50.4982 34.5713L53.7658 32.0134C54.715 31.2703 54.22 29.7467 53.0152 29.7035Z" fill="#737171"/>
</svg>
